<svg width="480" height="621" viewBox="0 0 480 621" fill="none" xmlns="http://www.w3.org/2000/svg">
<g clip-path="url(#clip0_18_594)">
<mask id="mask0_18_594" style="mask-type:luminance" maskUnits="userSpaceOnUse" x="-1" y="-27" width="481" height="648">
<path d="M479.627 -26.252V621H-0.372559V-26.9999L479.627 -26.252Z" fill="white"/>
</mask>
<g mask="url(#mask0_18_594)">
<path d="M491.56 1135.05L432.666 1006.71L491.56 1134.9L541.536 1061.51L551.449 967.538L544.93 862.786L561.205 817.242L564.799 729.48L614.117 657.547L541.536 524.732L491.56 598.273L489.707 594.243V594.109L491.56 598.139L541.536 524.743L551.449 430.775L544.718 322.608L486.928 203.679L489.886 48.0029L391.888 0.48291L328.037 14.8383L267.01 18.7117L163.218 2.96105L77.0973 39.095L-13.6227 14.7824L-46.5976 122.224L-15.3529 242.459L-85.1427 324.059L-16.4134 506.124L-52.7259 605.93L-181.768 602.794L-179.368 711.184L-105.135 818.626L-16.2795 775.649L-16.1567 776.107L-105.135 818.626L-71.0329 844.323L-85.1427 860.821L-16.4134 1042.89L-52.7259 1142.69L-181.768 1139.56L-179.368 1247.95L-105.135 1355.39L-9.7939 1309.28L-9.39206 1309.63L-105.135 1355.39L-35.7474 1407.68L-52.5027 1419.02L10.4331 1459.58L74.82 1477.04L85.9494 1565.1L190.868 1599.78L274.645 1540.98L407.382 1562.39L515.683 1481.43L561.205 1354.02L564.799 1266.25L614.117 1194.32L541.536 1061.51L491.56 1135.05Z" fill="#FFE2AC"/>
<path d="M544.517 524.732L494.541 598.139L425.399 447.608L544.517 524.732Z" fill="#FFF1D3"/>
<path d="M406.936 669.335L346.109 713.383L407.605 604.881L406.936 669.335Z" fill="#FFE2AC"/>
<path d="M494.541 598.273L407.605 604.881L425.399 447.608L494.541 598.273Z" fill="#FFECC5"/>
<path d="M51.5458 590.816L14.4184 669.078L-49.7341 605.908L51.5458 590.816Z" fill="#FFF1D3"/>
<path d="M51.5459 590.816L134.084 635.043L14.4185 669.078L51.5459 590.816Z" fill="#FFECC5"/>
<path d="M123.78 542.548L49.3469 459.832L51.546 590.816L123.78 542.548Z" fill="#FFF1D3"/>
<path d="M14.4184 669.078L-49.7341 605.908L-91.1257 726.388L14.4184 669.078Z" fill="#FFE2AC"/>
<path d="M195.657 613.644L241.492 700.166L139.073 711.162L195.657 613.644Z" fill="#FFECC5"/>
<path d="M209.086 544.613L123.78 542.548L195.657 613.644L209.086 544.613Z" fill="#FFF1D3"/>
<path d="M240.777 256.356L140.457 261.268L192.543 169.856L240.777 256.356Z" fill="#FFECC5"/>
<path d="M140.457 261.268L47.3486 240.427L128.368 161.986L140.457 261.268Z" fill="#FFF1D3"/>
<path d="M99.0322 344.219L199.073 320.922L140.457 261.268L99.0322 344.219Z" fill="#FFF1D3"/>
<path d="M55.4529 140.487L47.3487 240.427L-12.3499 242.436L55.4529 140.487Z" fill="#FFECC5"/>
<path d="M55.4529 140.487L80.0892 39.0726L128.368 161.986L55.4529 140.487Z" fill="#FFE2AC"/>
<path d="M-82.1396 324.036L-12.3499 242.436L21.5515 371.155L-82.1396 324.036Z" fill="#FFE2AC"/>
<path d="M-82.1396 324.036L21.5515 371.154L-13.4215 506.101L-82.1396 324.036Z" fill="#FFECC5"/>
<path d="M21.5514 371.154L49.3468 459.832L-13.4216 506.101L21.5514 371.154Z" fill="#FFE2AC"/>
<path d="M47.3487 240.427L-12.3499 242.436L21.5515 371.154L47.3487 240.427Z" fill="#FFE2AC"/>
<path d="M209.086 67.9619L284.625 106.139L192.543 169.856L209.086 67.9619Z" fill="#FFECC5"/>
<path d="M166.21 2.94983L80.0891 39.0726L209.086 67.9619L166.21 2.94983Z" fill="#FFE2AC"/>
<path d="M333.741 311.545L257.522 430.764L199.073 320.922L333.741 311.545Z" fill="#FFE2AC"/>
<path d="M406.936 269.573L322.735 226.049L333.741 311.545L406.936 269.573Z" fill="#FFF1D3"/>
<path d="M322.735 226.049L277.213 167.389L240.778 256.356L322.735 226.049Z" fill="#FFF1D3"/>
<path d="M322.735 226.049L355.107 67.9619L414.08 161.986L322.735 226.049Z" fill="#FFE2AC"/>
<path d="M489.92 203.668L492.867 47.9806L414.08 161.986L489.92 203.668Z" fill="#FFECC5"/>
<path d="M342.471 519.218L257.522 430.764L358.791 373.945L342.471 519.218Z" fill="#FFE2AC"/>
<path d="M209.086 544.613L329.611 632.955L342.47 519.218L209.086 544.613Z" fill="#FFE2AC"/>
<path d="M554.429 430.764L461.946 311.545L547.709 322.596L554.429 430.764Z" fill="#FFE2AC"/>
<path d="M461.946 311.545L489.92 203.668L547.709 322.596L461.946 311.545Z" fill="#FFECC5"/>
<path d="M461.946 311.545L406.936 269.573L489.92 203.668L461.946 311.545Z" fill="#FFECC5"/>
<path d="M355.107 68.3304L331.029 14.8271L394.868 0.471802L355.107 68.3304Z" fill="#FFE2AC"/>
<path d="M284.625 106.139L270.001 18.6895L331.028 14.8271L284.625 106.139Z" fill="#FFECC5"/>
<path d="M358.791 373.945L425.399 447.609L461.946 311.545L358.791 373.945Z" fill="#FFF1D3"/>
<path d="M257.522 430.764L209.086 544.613L159.412 420.617L257.522 430.764Z" fill="#FFE2AC"/>
<path d="M159.412 420.617L49.3469 459.832L99.0324 344.219L159.412 420.617Z" fill="#FFECC5"/>
<path d="M544.517 524.732L425.399 447.608L554.429 430.764L544.517 524.732Z" fill="#FFECC5"/>
<path d="M346.109 713.383L329.611 632.956L407.605 604.881L346.109 713.383Z" fill="#FFF1D3"/>
<path d="M-13.4219 506.102L49.3465 459.832L51.5456 590.816L-13.4219 506.102Z" fill="#FFECC5"/>
<path d="M51.5457 590.816L123.78 542.548L134.083 635.043L51.5457 590.816Z" fill="#FFE2AC"/>
<path d="M134.083 635.043L195.657 613.644L139.073 711.162L134.083 635.043Z" fill="#FFE2AC"/>
<path d="M195.657 613.644L329.611 632.955L241.492 700.166L195.657 613.644Z" fill="#FFF1D3"/>
<path d="M140.457 261.268L128.368 161.986L192.543 169.856L140.457 261.268Z" fill="#FFE2AC"/>
<path d="M-43.606 122.191L55.4526 140.487L-12.3501 242.436L-43.606 122.191Z" fill="#FFE2AC"/>
<path d="M80.0889 39.0728L-10.6311 14.7603L55.4526 140.487L80.0889 39.0728Z" fill="#FFF1D3"/>
<path d="M21.5513 371.154L47.3485 240.427L99.0322 344.219L21.5513 371.154Z" fill="#FFECC5"/>
<path d="M128.368 161.986L80.0889 39.0726L209.086 67.9619L128.368 161.986Z" fill="#FFECC5"/>
<path d="M209.086 67.962L270.001 18.6895L284.625 106.139L209.086 67.962Z" fill="#FFE2AC"/>
<path d="M240.777 256.356L333.741 311.545L199.073 320.922L240.777 256.356Z" fill="#FFECC5"/>
<path d="M333.741 311.545L358.79 373.945L257.521 430.764L333.741 311.545Z" fill="#FFF1D3"/>
<path d="M192.543 169.856L277.213 167.389L240.777 256.356L192.543 169.856Z" fill="#FFE2AC"/>
<path d="M277.213 167.389L355.107 67.9619L322.735 226.049L277.213 167.389Z" fill="#FFE2AC"/>
<path d="M277.213 167.389L284.625 106.139L355.107 67.9619L277.213 167.389Z" fill="#FFECC5"/>
<path d="M322.734 226.049L414.079 161.986L406.935 269.573L322.734 226.049Z" fill="#FFECC5"/>
<path d="M407.605 604.881L342.47 519.218L425.399 447.608L407.605 604.881Z" fill="#FFE2AC"/>
<path d="M342.47 519.218L358.79 373.945L425.399 447.608L342.47 519.218Z" fill="#FFECC5"/>
<path d="M342.47 519.218L209.086 544.613L257.521 430.764L342.47 519.218Z" fill="#FFF1D3"/>
<path d="M414.08 161.986L394.868 0.471802L492.867 47.9806L414.08 161.986Z" fill="#FFE2AC"/>
<path d="M461.946 311.545L358.79 373.945L406.935 269.573L461.946 311.545Z" fill="#FFE2AC"/>
<path d="M159.412 420.617L99.0322 344.219L199.073 320.922L159.412 420.617Z" fill="#FFE2AC"/>
<path d="M123.78 542.548L209.086 544.613L159.412 420.617L123.78 542.548Z" fill="#FFECC5"/>
<path d="M494.541 598.273L406.936 669.335L407.606 604.881L494.541 598.273Z" fill="#FFF1D3"/>
<path d="M-13.4216 506.102L51.5458 590.816L-49.7341 605.908L-13.4216 506.102Z" fill="#FFE2AC"/>
<path d="M134.084 635.043L123.78 542.548L195.657 613.644L134.084 635.043Z" fill="#FFECC5"/>
<path d="M195.657 613.644L209.086 544.613L329.611 632.956L195.657 613.644Z" fill="#FFECC5"/>
<path d="M240.777 256.356L199.073 320.922L140.458 261.268L240.777 256.356Z" fill="#FFE2AC"/>
<path d="M140.457 261.268L99.0323 344.219L47.3486 240.427L140.457 261.268Z" fill="#FFE2AC"/>
<path d="M-43.6057 122.191L-10.6309 14.7603L55.4529 140.487L-43.6057 122.191Z" fill="#FFE2AC"/>
<path d="M55.4528 140.487L128.368 161.986L47.3486 240.427L55.4528 140.487Z" fill="#FFE2AC"/>
<path d="M21.5515 371.155L99.0324 344.219L49.3469 459.832L21.5515 371.155Z" fill="#FFF1D3"/>
<path d="M128.368 161.986L209.086 67.9619L192.543 169.856L128.368 161.986Z" fill="#FFF1D3"/>
<path d="M192.543 169.856L284.625 106.139L277.213 167.389L192.543 169.856Z" fill="#FFF1D3"/>
<path d="M209.086 67.9619L166.21 2.94983L270.002 18.6894L209.086 67.9619Z" fill="#FFF1D3"/>
<path d="M240.778 256.356L322.735 226.049L333.741 311.545L240.778 256.356Z" fill="#FFE2AC"/>
<path d="M333.741 311.545L406.936 269.573L358.791 373.945L333.741 311.545Z" fill="#FFECC5"/>
<path d="M489.92 203.668L414.08 161.986L406.936 269.573L489.92 203.668Z" fill="#FFF1D3"/>
<path d="M407.605 604.881L329.611 632.955L342.471 519.218L407.605 604.881Z" fill="#FFECC5"/>
<path d="M554.429 430.764L425.399 447.609L461.946 311.545L554.429 430.764Z" fill="#FFE2AC"/>
<path d="M567.78 729.48L406.936 669.335L494.541 598.273L567.78 729.48Z" fill="#FFECC5"/>
<path d="M284.625 106.139L331.029 14.8271L355.107 67.962L284.625 106.139Z" fill="#FFE2AC"/>
<path d="M355.107 68.3304L394.869 0.471802L414.08 161.986L355.107 68.3304Z" fill="#FFF1D3"/>
<path d="M257.522 430.764L159.412 420.617L199.073 320.922L257.522 430.764Z" fill="#FFF1D3"/>
<path d="M159.412 420.617L123.78 542.548L49.3469 459.832L159.412 420.617Z" fill="#FFE2AC"/>
</g>
</g>
<defs>
<clipPath id="clip0_18_594">
<rect width="480" height="621" fill="white"/>
</clipPath>
</defs>
</svg>
